<svg xmlns="http://www.w3.org/2000/svg" width="35" height="35" viewBox="0 0 35 35">
  <g id="btn_viewall" transform="translate(-1870 -2894)">
    <path id="제외_8" data-name="제외 8" d="M3222.5-2594a17.385,17.385,0,0,1-12.374-5.126A17.387,17.387,0,0,1,3205-2611.5a17.384,17.384,0,0,1,5.126-12.374A17.384,17.384,0,0,1,3222.5-2629a17.386,17.386,0,0,1,12.375,5.125A17.384,17.384,0,0,1,3240-2611.5a17.387,17.387,0,0,1-5.126,12.375A17.386,17.386,0,0,1,3222.5-2594Zm-1-16.5v4.5h2v-4.5h4.5v-2h-4.5v-4.5h-2v4.5H3217v2Z" transform="translate(-1335 5523)" fill="#fff"/>
  </g>
</svg>
