<svg xmlns="http://www.w3.org/2000/svg" xmlns:xlink="http://www.w3.org/1999/xlink" width="1165" height="237" viewBox="0 0 1165 237">
  <defs>
    <clipPath id="clip-path">
      <rect id="area" width="1165" height="237" transform="translate(-9332 -16658)" fill="red" opacity="0.164"/>
    </clipPath>
  </defs>
  <g id="img_title_all_wh" transform="translate(9332 16658)" clip-path="url(#clip-path)">
    <path id="패스_6025" data-name="패스 6025" d="M118.8-50.88,137.28,0h23.76L96-170.88H66L1.2,0H24.72L43.44-50.88Zm-7.2-19.44H50.4l5.76-15.6c8.64-23.76,16.56-45.84,24.72-69.6h.48c8.16,23.76,16.08,45.84,24.72,69.6ZM191.04,0V-170.88H169.92V0ZM238.8,0V-170.88H217.68V0Zm75.12-170.88V0H336V-67.68h36.48c39.36,0,59.76-20.4,59.76-51.6s-20.4-51.6-59.76-51.6ZM336-151.68h34.8c25.92,0,38.64,12.24,38.64,32.4s-12.72,32.4-38.64,32.4H336Zm167.52,28.56c-15.6,0-27.84,6.48-36,19.92h-.48v-18.72H446.88V0H468V-62.16c0-26.88,12.96-41.76,36-41.76,2.64,0,5.76.48,8.4.72v-18.96A37.281,37.281,0,0,0,503.52-123.12Zm63.84-2.16c-35.76,0-57.84,24.48-57.84,64.32S531.6,3.36,567.36,3.36s58.08-24.48,58.08-64.32S603.12-125.28,567.36-125.28Zm0,17.28c22.32,0,36,18,36,47.04s-13.68,47.04-36,47.04c-22.08,0-35.76-18-35.76-47.04S545.28-108,567.36-108ZM746.4,0V-170.88H725.28v65.76h-.48c-6.72-12.24-20.88-19.92-37.2-19.92-30.96,0-50.88,24.96-50.88,63.84S656.64,2.88,687.84,2.88c16.56,0,30.72-7.92,37.44-20.64h.48V0ZM693.12-108c20.16,0,33.36,18,33.36,46.8,0,29.04-13.2,47.04-33.36,47.04-20.88,0-34.32-18.48-34.32-47.04S672.24-108,693.12-108ZM815.76,2.64c16.32,0,29.76-7.44,37.2-18.72h.48V0h20.4V-121.92H852.72v69.84c0,24.48-14.64,37.44-31.68,37.44-17.52,0-28.08-9.12-28.08-34.56v-72.72H771.84v74.4C771.84-14.16,787.92,2.64,815.76,2.64ZM948.24,2.4c26.4,0,51.6-20.4,65.04-45.6a1.12,1.12,0,0,0-.24-1.68c-.48-.24-1.2,0-1.68.96-12,21.84-27.6,32.88-50.16,32.88-32.4,0-54.96-23.28-54.96-54.96,0-32.64,18.96-51.12,42.72-51.12,23.28,0,28.32,22.56,38.4,22.56,7.68,0,11.76-5.76,11.76-9.84,0-8.4-16.56-18-40.08-18-35.04,0-68.4,32.64-68.4,67.2C890.64-21.36,914.4,2.4,948.24,2.4Zm89.52,0c16.56,0,30.48-15.36,38.16-30.96.96-1.92-2.4-3.36-3.12-1.44-5.52,16.08-14.88,24.96-24.48,24.96-10.08,0-15.6-9.12-15.6-26.4V-106.8c8.16,0,27.6.24,29.52.24,7.44-6.72,11.76-11.52,11.76-12.96,0-.48-.48-.72-8.4-.48s-25.2.24-32.4.24v-23.28c0-.96-.48-.72-.96-.24L1001.52-108c-.48.48-.24,1.2,0,1.2h13.2v76.08C1014.72-7.68,1021.68,2.4,1037.76,2.4Zm85.2,0c24.24,0,42.96-15.6,42.96-36.96s-20.88-28.8-41.04-35.76c-19.2-6.72-37.92-12.96-37.92-29.28,0-12.48,13.44-20.88,33.12-20.88,15.12,0,25.2,4.8,31.2,13.92,5.04,7.92,7.2,18.72,7.2,32.16,0,1.92,1.92,1.92,1.92,0,0-8.4,1.2-34.32,1.2-42,0-.96-.24-1.68-1.68-1.92-13.92-2.16-20.4-4.08-40.08-4.08-19.92,0-44.4,11.04-44.4,35.76,0,19.2,20.4,26.88,40.56,33.6,19.44,6.48,38.16,12.72,38.16,29.28,0,13.2-7.92,24-31.2,24-15.84,0-26.64-3.84-33.6-11.76-7.92-8.64-11.04-22.56-11.04-40.8,0-2.16-1.92-2.16-1.92,0,0,33.84-1.44,39.12-1.44,42.72,0,2.16.48,3.12,1.68,3.36C1086.24-3.6,1098.24,2.4,1122.96,2.4Z" transform="translate(-9333 -16487)" fill="#fff"/>
  </g>
</svg>
