<svg xmlns="http://www.w3.org/2000/svg" xmlns:xlink="http://www.w3.org/1999/xlink" width="283" height="237" viewBox="0 0 283 237">
  <defs>
    <clipPath id="clip-path">
      <rect id="area" width="283" height="237" transform="translate(-8505 -16302)" fill="red" opacity="0"/>
    </clipPath>
  </defs>
  <g id="img_title_lip_wh" transform="translate(8505 16302)" clip-path="url(#clip-path)">
    <path id="패스_5967" data-name="패스 5967" d="M-269.76-19.68v-151.2h-22.08V0H-182.4V-19.68Zm118.8-127.44v-23.76h-21.12v23.76Zm0,147.12V-121.92h-21.12V0ZM-78,2.4C-43.44,2.4-9.36-26.4-9.36-66c0-33.12-23.28-56.4-50.64-56.4-18.24,0-36,9.6-47.52,25.2v-24.48c0-1.2-3.6-2.16-4.32-1.68-8.16,4.56-18,11.76-30.24,13.2-1.92.24-1.92,2.4,0,2.16,12-2.16,16.8-4.32,16.8,16.32V35.04c0,26.16-1.44,28.08-17.76,28.08-1.92,0-1.92,2.16,0,2.16,6.96,0,24-.48,27.6-.48,3.84,0,22.8.48,24.72.48s1.92-2.16,0-2.16h-17.04V-6.72A54.683,54.683,0,0,0-78,2.4Zm6.24-116.88c29.76,0,44.64,29.04,44.64,57.12,0,35.28-14.88,54.48-40.8,54.48-16.8,0-30.96-12.96-39.6-22.08V-94.32C-99.36-106.8-84.96-114.48-71.76-114.48Z" transform="translate(-8213 -16131)" fill="#fff"/>
  </g>
</svg>
