<!-- Generator: Adobe Illustrator 24.3.0, SVG Export Plug-In  -->
<svg version="1.1" xmlns="http://www.w3.org/2000/svg" xmlns:xlink="http://www.w3.org/1999/xlink" x="0px" y="0px" width="1032px"
	 height="415px" viewBox="0 0 1032 415" style="overflow:visible;enable-background:new 0 0 1032 415;" xml:space="preserve">
<style type="text/css">
	.st0{fill:#BA3131;}
	.st1{display:none;fill:none;}
	.st2{fill:#FFFFFF;}
</style>
<defs>
</defs>
<g id="img_title_spectrum_bk_1_" transform="translate(-556 -12608)">
	<path id="패스_6024_1_" class="st2" d="M669,12801.5c-34.8,0-56.6,19.4-56.6,47c0,34.3,24.5,42.5,57.4,50.6
		c27.6,7,41.8,11.8,41.8,30.7s-13.7,30.2-38.2,30.2c-25.7,0-41.3-13-41.3-41h-22.8c0,39.4,24,60,63.8,60c37.2,0,61.2-19.7,61.2-50.4
		c0-35-25.7-43.2-58.1-51.1c-28.1-7-41.3-12.2-41.3-30.5c0-16.3,12.7-26.6,33.8-26.6c25.2,0,39.1,12,39.1,37.2h22.3
		C730.2,12820.7,709.8,12801.5,669,12801.5z M812.5,12850.7c-16.3,0-30.7,7.9-37.2,20.6h-0.5v-17.5H754v166.3h21.1v-61.7h0.5
		c6.7,12.2,20.9,20.2,37.2,20.2c31,0,50.9-25.2,50.9-64.1S843.7,12850.7,812.5,12850.7L812.5,12850.7z M807.2,12867.8
		c20.9,0,34.3,18.2,34.3,46.8c0,28.6-13.4,47-34.3,47c-20.2,0-33.1-18-33.1-47C774.1,12885.8,787.1,12867.8,807.2,12867.8z
		 M932.3,12962.8c-19.9,0-35.3-13.7-36.2-43.7h91.2c0-10.6-0.7-19.2-2.4-26.2c-6.2-26.2-25.7-42.5-53.3-42.5
		c-35.5,0-56.6,26.6-56.6,62.6c0,39.8,21.4,66,57.4,66c31.2,0,49.7-18.5,53.8-39.8h-21.6C961.6,12953,950,12962.8,932.3,12962.8z
		 M931.6,12866.8c18.7,0,32.6,12.5,34.8,36.2h-70.1C898.4,12879.8,912.1,12866.8,931.6,12866.8z M1055.9,12850.5
		c-35.3,0-57.4,24.7-57.4,64.3c0,39.6,22.1,64.3,57.4,64.3c29.8,0,49.7-20.4,52.1-48.2h-22.1c-1.4,17.5-13.4,31-30.2,31
		c-21.6,0-34.8-17.8-34.8-47c0-29,13.2-47,34.8-47c16.8,0,28.8,12,30.2,29.3h22.1C1105.6,12869.7,1085.2,12850.5,1055.9,12850.5z
		 M1167.7,12959.2c-12.2,0-16.8-5.8-16.8-19.7v-68.9h24.2v-16.8h-24.2v-29.5h-21.1v29.5h-21.1v16.8h21.1v71c0,25.2,9.8,35,33.1,35
		c4.5,0,9-0.4,13.4-1.4v-17.3C1173.6,12958.8,1170.6,12959.2,1167.7,12959.2z M1247.4,12852.7c-15.6,0-27.8,6.5-36,19.9h-0.5v-18.7
		h-20.2v121.9h21.1v-62.2c0-26.9,13-41.8,36-41.8c2.6,0,5.8,0.5,8.4,0.7v-19C1253.4,12852.9,1250.4,12852.6,1247.4,12852.7z
		 M1302.8,12978.2c18.5,0,32.2-9.8,44.4-26.2c0,12.5-2.4,22.6-2.4,24c0,1.4,0,2.4,1.9,2.2c6.7-0.7,16.3-2.4,31.2-2.4
		c0.6,0,1.1-0.5,1.1-1.1c0-0.6-0.5-1.1-1.1-1.1c-11.8,0-12.7-2.2-12.7-26.4v-91.2c0-1.2-3.6-2.2-4.3-1.7c-9,5.3-18.8,8.9-29,10.8
		c-1.9,0.2-1.9,2.4,0,2.2c12-2.2,15.4-2.6,15.4,18v63.6c-11.3,15.4-21.4,22.1-36.5,22.1c-14.6,0-28.3-9.4-28.3-39.1v-75.8
		c0-1.2-3.6-2.2-4.3-1.7c-9.1,5.3-19,8.9-29.3,10.8c-1.9,0.2-1.9,2.4,0,2.2c12-2.2,15.4-2.6,15.4,18v44.2
		C1264.2,12967.1,1281.2,12978.2,1302.8,12978.2z M1378.4,12975.3c2.5,0,5-0.2,7.4-0.5c5-8.4,14.4-24.2,22.6-36.5
		c27.4-39.8,63.1-69.1,77.3-73.4c1.2,1.7,2.4,4.1,2.2,8.6c-0.5,12-6.2,26.2-13.4,40.3c-10.1,19.4-23.3,38.6-30,50.9
		c-2.6,8.6,1.7,10.3,7.2,10.6c2.4,0,5-0.2,7.4-0.5c4.6-8.4,13.7-24.2,21.6-36.5c25.4-39.8,65.3-69.1,79.4-73.4
		c5.3,5.3,5.5,12.2-14.6,46.8c-8.4,14.4-22.1,34.3-21.4,44.2c0.2,4.8,3.1,14.4,9.1,19c0.7,0.5,3.4,1,6,1c1.9,0,3.8,0,4.8-0.7
		c15.1-9.1,28.3-21.4,37.2-30l-1.4-1.7c-8.9,9.1-21.4,17.8-29,20.4c-4.8-1.4-6.7-5.5-7-9.6c-0.5-8.9,8.9-23.5,17.8-38.9
		c25-42.5,26.2-59.3,11.5-62.6c-15.4,4.6-55.7,34.3-82.6,67.2c19.7-33.1,21.6-64.3,8.2-67.2c-16.3,4.8-56.6,37.9-84.2,73
		c8.9-15.4,21.4-37,20.4-49.2c-0.5-7-4.8-23.3-13.2-23.3c-1.5,0.1-3,0.5-4.3,1.2c-14.9,8.4-30,21.4-38.9,30l1.7,1.7
		c9.4-10.1,21.4-17.8,28.1-19.4c4.5,1.4,7.5,5.4,7.7,10.1c1.2,19.9-30.2,68.9-44.4,88.3
		C1368.4,12973.9,1373.4,12975.3,1378.4,12975.3z"/>
</g>
</svg>
