<!-- Generator: Adobe Illustrator 24.3.0, SVG Export Plug-In  -->
<svg version="1.1" xmlns="http://www.w3.org/2000/svg" xmlns:xlink="http://www.w3.org/1999/xlink" x="0px" y="0px" width="1032px"
	 height="415px" viewBox="0 0 1032 415" style="overflow:visible;enable-background:new 0 0 1032 415;" xml:space="preserve">
<style type="text/css">
	.st0{fill:#BA3131;}
	.st1{fill:#FFFFFF;}
</style>
<defs>
</defs>
<path id="패스_6214_1_" class="st1" d="M165.9,160.8L202.9,2h-20.5l-14.9,64.2c-5.8,25-11.4,50-16.5,74.7h-0.4
	c-5.6-24.8-11.4-50-17.6-74.9L117.3,2H88.7L73.1,66c-6.2,25-12,50.2-17.6,74.9h-0.4c-5.4-24.8-10.7-49.7-16.5-74.7L23.6,2H3.1
	l37,158.8h29.4l16.7-69.4c5.8-23.6,11.4-47.5,16.5-71.1h0.4c5.1,23.6,10.7,47.5,16.5,71.1l16.7,69.4H165.9z M254.7,44.4
	c-33.2,0-53.7,22.7-53.7,59.8s20.5,59.8,53.7,59.8s54-22.7,54-59.8S287.9,44.4,254.7,44.4z M254.7,60.4c20.7,0,33.4,16.7,33.4,43.7
	s-12.7,43.7-33.4,43.7c-20.5,0-33.2-16.7-33.2-43.7S234.1,60.4,254.7,60.4z M376.2,44.4c-33.2,0-53.7,22.7-53.7,59.8
	s20.5,59.8,53.7,59.8s54-22.7,54-59.8S409.4,44.4,376.2,44.4L376.2,44.4z M376.2,60.4c20.7,0,33.5,16.7,33.5,43.7
	s-12.7,43.7-33.5,43.7c-20.5,0-33.2-16.7-33.2-43.7S355.7,60.4,376.2,60.4L376.2,60.4z M497.3,104.4V87h-53.5v17.4L497.3,104.4z
	 M640.7,160.8V2h-20.7v67.3H539V2h-20.5v158.8H539V87.4h80.9v73.4H640.7z M776.5,120.6c-6.3,12.2-15.4,22.7-26.6,30.7
	c-11.1,7.8-22.3,11.7-33.8,11.7c-15.6,0-28.4-5-38.5-15.1c-10-10-15.1-22.9-15.1-38.5c0-7.9,1.7-15.7,4.9-22.9
	c3.4-7.6,8.1-14.5,14-20.4c5.8-6,12.7-10.8,20.3-14.2c7.1-3.2,14.9-5,22.7-5c5-0.1,10,0.5,14.9,1.7c4.1,1,8.1,2.7,11.6,5
	c4.1,2.6,7.5,6.3,9.8,10.7c2.1,3.9,3,8.3,2.5,12.7c-0.1,2-1.1,3.9-2.7,5.2c-1.5,1.1-3.7,1.7-6.7,1.7h-76c-0.6,2.7-1.1,5.4-1.4,8.1
	c-0.4,3-0.6,6-0.6,9c0,13.7,5.2,25.2,15.5,34.7c10.3,9.4,22.9,14.2,37.8,14.2c9.1,0.3,18.1-2.2,25.8-7.1c7.5-4.9,14.1-12.6,19.7-23
	c0.4-0.9,1-1.2,1.6-0.9C776.9,119.4,776.9,119.9,776.5,120.6z M743.9,72.2c0-5.4-2.4-10.1-7.2-14.2c-4.8-4.1-11-6.1-18.4-6.1
	c-10.1,0-18.6,2.6-25.5,7.9c-6.9,5.3-11.7,12.7-14.4,22.4c5.1,0,10.1,0,15.1-0.1c5-0.1,11.6-0.2,19.7-0.3c5.8-0.1,10-0.3,12.6-0.3
	c2.6-0.1,5-0.1,7.2-0.1c1.8,0,3.6-0.3,5.4-0.8c1.2-0.2,2.5-0.6,3.6-1.2c0.7-0.9,1.2-1.9,1.5-3C743.7,75,743.9,73.6,743.9,72.2z
	 M856.8,152.5c-5,3.4-10.6,6.1-16.4,7.9c-5.6,1.7-11.4,2.6-17.3,2.6c-16.7,0-30.1-5-40.5-14.9c-10.3-10-15.5-22.8-15.5-38.6
	c0-7.9,1.7-15.7,4.9-22.9c3.4-7.6,8.1-14.5,14-20.4c5.8-6,12.7-10.8,20.3-14.2c7.1-3.2,14.9-5,22.7-5c5-0.1,10,0.5,14.9,1.7
	c4.1,1,8.1,2.7,11.6,5c4.1,2.6,7.5,6.3,9.8,10.7c2.1,3.9,3,8.3,2.5,12.7c-0.1,2-1.1,3.9-2.7,5.2c-1.5,1.1-3.7,1.7-6.7,1.7h-76
	c-0.6,2.7-1.1,5.4-1.4,8.1c-0.4,3-0.6,6-0.6,9c0,13.7,5.2,25.2,15.6,34.7c10.4,9.4,23.2,14.2,38.4,14.2c12.3,0,23-3.5,32.1-10.5
	s17-17.9,23.9-32.8c0.6-1.3,1.2-1.9,1.7-1.7c0.5,0.2,0.5,0.9-0.1,2.1c-3.9,9.4-9.1,18.3-15.4,26.4C871,141,864.3,147.3,856.8,152.5z
	 M848.5,72.2c0-5.4-2.4-10.1-7.2-14.2s-11-6.1-18.4-6.1c-10.1,0-18.6,2.6-25.5,7.9c-6.9,5.3-11.7,12.7-14.4,22.4
	c5.1,0,10.1,0,15.1-0.1c5-0.1,11.6-0.2,19.7-0.3c5.8-0.1,10-0.3,12.6-0.3c2.6-0.1,5-0.1,7.2-0.1c1.8,0,3.6-0.3,5.4-0.8
	c1.2-0.2,2.5-0.6,3.6-1.2c0.7-0.9,1.2-1.9,1.5-3C848.3,75,848.5,73.6,848.5,72.2L848.5,72.2z"/>
</svg>
