<!-- Generator: Adobe Illustrator 24.3.0, SVG Export Plug-In  -->
<svg version="1.1" xmlns="http://www.w3.org/2000/svg" xmlns:xlink="http://www.w3.org/1999/xlink" x="0px" y="0px" width="990px"
	 height="368px" viewBox="0 0 990 368" style="overflow:visible;enable-background:new 0 0 990 368;" xml:space="preserve">
<style type="text/css">
	.st0{fill:#9E3535;}
	.st1{fill:#FFFFFF;}
</style>
<path id="that_1_" class="st1" d="M69.4,21v126H50.8V21H2.2V4.6H118V21H69.4z M143.6,58.2c3.2-4.8,7.7-8.7,13-11.2
	c5.4-2.5,11.3-3.8,17.2-3.8c11.7,0,20.8,3.5,27.2,10.6s9.6,17.5,9.6,31.2v62H193V86.4c0-10.3-2-17.6-6-22.1s-9.8-6.7-17.4-6.7
	c-7.2-0.2-14.1,2.8-18.9,8.2c-5,5.5-7.5,13.1-7.5,23V147h-17.6V4.6h17.6v53.6L143.6,58.2z M267,42.6c12.7,0,22.5,3.3,29.5,9.9
	S307,68.9,307,82v39c-0.1,8.7,0.7,17.4,2.4,26h-16c-1-4.9-1.5-9.8-1.4-14.8h-0.4c-3.5,5.4-8.4,9.7-14.2,12.6
	c-5.9,2.9-12.9,4.4-21,4.4c-10.4,0-18.7-2.8-25-8.3c-6.3-5.5-9.4-12.7-9.4-21.5s2.9-15.8,8.7-20.9c5.8-5.1,15.8-8.8,29.9-11.1
	c9.9-1.6,19.7-2.7,29.4-3.4v-4c0-8.1-2-14.1-6.1-18s-9.7-5.8-16.9-5.8c-7.2,0-12.8,1.8-16.8,5.5c-4,3.7-6.1,8.6-6.4,14.7h-17.6
	c0.5-10,4.3-18.1,11.4-24.4C244.7,45.7,254.5,42.6,267,42.6z M290,97.4c-10.3,0.8-19.1,1.9-26.6,3.2c-8.5,1.3-14.6,3.3-18.1,6
	c-3.5,2.7-5.3,6.5-5.3,11.6c0,5.3,1.8,9.6,5.5,12.7c3.7,3.1,8.8,4.7,15.3,4.7c4,0,8-0.7,11.7-2.1c3.5-1.3,6.7-3.3,9.3-5.9
	c2.8-2.8,5-6.2,6.4-9.9c1.2-3.4,1.8-8.1,1.8-14.1L290,97.4z M360.8,133.2c2.4,0.1,4.9-0.3,7.2-1v14.4c-3.7,0.9-7.4,1.3-11.2,1.2
	c-9.7,0-16.8-2.3-21.1-6.8c-4.3-4.5-6.5-12-6.5-22.4V59.4h-17.6v-14h17.6V20.8h17.6v24.6H367v14h-20.2v57.4c0,5.9,1.1,10.1,3.2,12.6
	C352.2,131.9,355.8,133.2,360.8,133.2L360.8,133.2z M387.4,53h-10.6l7-26.8h-6.6V4.6H397v21.6L387.4,53z M440.6,42.6
	c12.5,0,22.3,3,29.2,9s10.4,14.5,10.4,25.6H463c0-6.8-2-12-5.9-15.6c-3.9-3.6-9.5-5.4-16.7-5.4c-6.1,0-11,1.3-14.5,3.9
	c-3.4,2.4-5.4,6.3-5.3,10.5c0,3.5,0.8,6.1,2.5,8c2,2,4.4,3.6,7.1,4.4c3.1,1.1,8,2.4,14.8,4c6.9,1.6,13.8,3.6,20.5,6
	c4.9,1.9,9.3,5,12.6,9.1c3.5,4.2,5.3,10,5.3,17.3c0.2,8.7-3.8,17-10.9,22.1c-7.3,5.5-17,8.3-29.3,8.3c-13.5,0-23.9-3.1-31.3-9.4
	c-7.4-6.3-11.2-15.3-11.3-27.2h17.8c0,7.2,2.2,12.8,6.5,16.7c4.3,3.9,10.5,5.9,18.5,5.9c6.7,0,12-1.4,16-4.2c4-2.8,6-6.5,6-11
	c0-3.9-0.9-6.9-2.8-9c-2.2-2.4-5.1-4.1-8.2-5.1c-3.6-1.3-9.3-2.8-17-4.7c-6.3-1.5-12.5-3.3-18.6-5.5c-4.3-1.7-8.2-4.6-11.1-8.2
	c-3.1-3.8-4.7-9.2-4.7-16.1c0-8.7,3.5-15.7,10.5-21.2C420.5,45.3,429.6,42.6,440.6,42.6z"/>
<path id="so_1_" class="st1" d="M575.2,1.8c16.9,0,29.7,3.9,38.2,11.8c8.5,7.9,12.8,19.5,12.8,35h-18.6c0-10.4-2.8-18.2-8.3-23.3
	s-13.6-7.7-24.3-7.7c-8.8,0-15.7,2-20.7,6s-7.5,9.4-7.5,16.2c0,4.9,1.2,8.9,3.6,11.9c2.4,3,6,5.5,10.7,7.4
	c6.6,2.5,13.3,4.5,20.1,6.1c9,2,17.8,4.8,26.3,8.2c6.4,2.6,11.9,6.9,16,12.4c4.1,5.5,6.1,12.8,6.1,22c0.2,7.8-2,15.5-6.3,22.1
	c-4.4,6.5-10.6,11.6-17.8,14.7c-7.7,3.5-16.6,5.2-26.9,5.2c-16.8,0-29.9-4.3-39.2-12.8c-9.3-8.5-14-20.9-14-37.2h19
	c0,11.5,3,20,9,25.7c6,5.7,14.5,8.5,25.4,8.5c10.1,0,18-2.2,23.5-6.6c5.5-4.4,8.3-10.6,8.3-18.6c0-5.1-1.2-9.1-3.7-12.2
	c-2.9-3.4-6.6-5.9-10.8-7.3c-6.7-2.4-13.4-4.4-20.3-6.1c-10.9-2.7-19.7-5.4-26.2-8.3c-6.2-2.6-11.7-6.9-15.7-12.3
	C530,57.3,528,50.1,528,41c-0.1-7.2,1.9-14.3,5.8-20.3c4.1-6.1,9.8-10.9,16.5-13.9C557.5,3.5,565.8,1.8,575.2,1.8L575.2,1.8z
	 M685.8,42.6c14.9,0,26.7,4.8,35.4,14.4c8.7,9.6,13,22.7,13,39.2s-4.3,29.6-13,39.2c-8.7,9.6-20.5,14.4-35.4,14.4
	s-26.7-4.8-35.3-14.4c-8.6-9.6-12.9-22.7-12.9-39.2s4.3-29.6,12.9-39.2C659.1,47.4,670.9,42.6,685.8,42.6L685.8,42.6z M685.8,57
	c-9.2,0-16.5,3.5-21.8,10.5s-8,16.6-8,28.7s2.7,21.7,8,28.7s12.6,10.5,21.8,10.5c9.3,0,16.7-3.5,22-10.5s8-16.6,8-28.7
	s-2.7-21.7-8-28.7S695.2,57,685.8,57L685.8,57z"/>
</svg>
