<!-- Generator: Adobe Illustrator 24.3.0, SVG Export Plug-In  -->
<svg version="1.1" xmlns="http://www.w3.org/2000/svg" xmlns:xlink="http://www.w3.org/1999/xlink" x="0px" y="0px" width="740px"
	 height="366px" viewBox="0 0 740 366" style="overflow:visible;enable-background:new 0 0 740 366;" xml:space="preserve">
<style type="text/css">
	.st0{fill:#FFFFFF;}
</style>
<defs>
</defs>
<path id="패스_6025_2_" class="st0" d="M81.1,181.8c-47.8,0-77.3,33.8-77.3,89.3c0,54.7,27.6,88.1,71.3,88.1
	c24.2,0,44.6-10.3,53.8-26.6h0.5V356H149v-90.7H80.9v19h47c-0.2,40.1-20.6,55.9-48.5,55.9c-32.6,0-52.6-25.9-52.6-69.1
	c0-43,20.6-69.1,54.2-69.1c24.7,0,40.6,12.7,44.4,34.6H149C145.9,203.1,120.2,181.8,81.1,181.8z M220.3,230.7
	c-31,0-47.8,17.5-49,40.6h21.1c0.7-14.4,10.1-24.2,27.8-24.2c16.3,0,27.6,8.4,27.6,28.6v4.8c-9.6,0.7-24.5,2.4-35.3,4.1
	c-35,5.5-46.3,18.2-46.3,38.4c0,20.6,15.8,35.8,41.3,35.8c19.7,0,33.8-7.4,42.2-20.4h0.5c0,6,0.5,11.9,1.7,17.8h19.2
	c-1.7-7.4-2.9-17.8-2.9-31.2v-47C268.3,245.8,250.1,230.7,220.3,230.7L220.3,230.7z M247.9,303.9c0,14.4-2.4,21.1-9.8,28.8
	c-6,6.2-15.4,9.6-25.2,9.6c-15.8,0-25-8.4-25-20.9c0-12,7.2-18,28.1-21.1c9.4-1.7,22.6-3.1,31.9-3.8V303.9z M350.1,232.9
	c-15.6,0-27.8,6.5-36,19.9h-0.5v-18.7h-20.2V356h21.1v-62.2c0-26.9,13-41.8,36-41.8c2.6,0,5.8,0.5,8.4,0.7v-19
	C356.1,233.2,353.1,232.8,350.1,232.9L350.1,232.9z M465.8,356V185.1h-21.1v65.8h-0.5c-6.7-12.2-20.9-19.9-37.2-19.9
	c-31,0-50.9,25-50.9,63.8s19.9,64.1,51.1,64.1c16.6,0,30.7-7.9,37.4-20.6h0.5V356H465.8z M412.5,248c20.2,0,33.4,18,33.4,46.8
	c0,29-13.2,47-33.4,47c-20.9,0-34.3-18.5-34.3-47S391.7,248,412.5,248z M542.1,358.4c13.7,0,25.7-4.3,36.2-11.3
	c17.3-11.5,30-30.2,37.9-48.7c1.2-2.6-0.5-3.4-1.7-0.5c-13.2,28.6-31,46.6-60.2,46.6c-32.4,0-58.1-23-58.1-52.6
	c-0.1-6.2,0.7-12.4,2.2-18.5h81.8c7.4,0,9.6-3.4,10.1-7.4c1.4-11-7.2-32.4-41.8-32.4c-33.1,0-66.7,31.2-66.7,67.2
	C481.9,333.9,505.4,358.4,542.1,358.4z M541.9,238.9c18.5,0,27.6,12.7,27.6,21.8c0,3.1-0.7,6-2.2,7.7c-0.7,0.7-6.2,2.2-9.6,2.2
	c-15.6,0-31.7,1-58.8,1C504.9,249.7,521.3,238.9,541.9,238.9z M612,355c5-8.4,14.4-24.2,22.6-36.5c27.4-39.8,64.8-69.1,79-73.4
	c5.5,5.3,6.5,12.2-13.7,46.8c-8.4,14.4-22.3,34.3-21.6,44.2c0.2,4.8,3.1,14.4,9.1,19c0.7,0.5,3.4,1,6,1c1.6,0.1,3.3-0.1,4.8-0.7
	c15.1-9.1,28.3-21.4,37.2-30l-1.4-1.7c-8.9,9.1-21.4,17.8-29,20.4c-4.8-1.4-6.7-5.5-7-9.6c-0.5-8.9,9.4-23.5,18-38.9
	c25.2-42.2,25.4-59.3,10.6-62.6c-16.6,4.8-58.3,38.2-85.9,73.2c8.9-15.4,21.4-37.2,20.4-49.4c-0.5-7-4.8-23.3-13.4-23.3
	c-1.4,0.1-2.8,0.5-4.1,1.2c-14.9,8.4-29.8,21.4-38.6,30l1.7,1.7c9.4-10.1,21.1-17.8,27.8-19.4c4.5,1.4,7.5,5.4,7.7,10.1
	c1.2,19.9-30.2,68.9-44.4,88.3c-3.1,8.9,1.9,10.3,7.2,10.3C607.2,355.5,609.6,355.3,612,355z"/>
</svg>
