<!-- Generator: Adobe Illustrator 24.3.0, SVG Export Plug-In  -->
<svg version="1.1" xmlns="http://www.w3.org/2000/svg" xmlns:xlink="http://www.w3.org/1999/xlink" x="0px" y="0px" width="740px"
	 height="366px" viewBox="0 0 740 366" style="overflow:visible;enable-background:new 0 0 740 366;" xml:space="preserve">
<style type="text/css">
	.st0{fill:#FFFFFF;}
</style>
<defs>
</defs>
<path id="패스_6026_2_" class="st0" d="M110.3,24.8V5.1H3.3V176h22.1v-73.2h79.7V83.1H25.4V24.8H110.3z M147.1,176V5.1H126V176
	H147.1z M222.7,50.7c-35.8,0-57.8,24.5-57.8,64.3s22.1,64.3,57.8,64.3s58.1-24.5,58.1-64.3S258.4,50.7,222.7,50.7z M222.7,68
	c22.3,0,36,18,36,47s-13.7,47-36,47c-22.1,0-35.8-18-35.8-47S200.6,68,222.7,68z M429.8,176l32.4-121.9h-21.4l-13,50.9
	c-4.6,18-9.1,36.7-13.4,54.7h-0.5c-4.3-17.5-8.9-35.8-13.4-53.5l-13.9-52.1h-30.2l-13.9,52.1c-4.8,17.8-9.4,36-13.4,53.5h-0.5
	c-4.3-18-8.9-36.7-13.4-54.7l-13-50.9h-21.4L313.1,176h30.2l14.4-52.8c4.6-17.8,9.1-35,13.4-52.8h0.5c4.3,17.8,8.9,35,13.4,52.8
	l14.4,52.8H429.8z M521.5,178.4c13.7,0,25.7-4.3,36.2-11.3c17.3-11.5,30-30.2,37.9-48.7c1.2-2.6-0.5-3.4-1.7-0.5
	c-13.2,28.6-31,46.6-60.2,46.6c-32.4,0-58.1-23-58.1-52.6c-0.1-6.2,0.7-12.4,2.2-18.5h81.8c7.4,0,9.6-3.4,10.1-7.4
	c1.4-11-7.2-32.4-41.8-32.4c-33.1,0-66.7,31.2-66.7,67.2C461.2,153.9,484.7,178.4,521.5,178.4z M521.2,58.9
	c18.5,0,27.6,12.7,27.6,21.8c0,3.1-0.7,6-2.2,7.7c-0.7,0.7-6.2,2.2-9.6,2.2c-15.6,0-31.7,1-58.8,1C484.3,69.7,500.6,58.9,521.2,58.9
	L521.2,58.9z M583.9,175.5c2.9,0,5.8-0.5,7.4-0.5c8.4-13.4,15.6-25.7,22.3-36.7c21.1-35.5,34.6-58.6,49.2-66.2
	c1.5-0.7,3-1.4,4.6-1.9c12.2-0.2,20.6,2.6,27.4,2.9c4.3-1,14.6-12.5,15.1-17.8c-0.7-1.7-16.8-2.2-25-1.4c-2.7,0.6-5.4,1.4-7.9,2.6
	c-13.7,6.5-28.1,23.8-44.4,45.4c4.6-9.6,8.2-18.7,7.7-25.2c-0.5-7-4.8-23-13.4-23.3c-1.4,0.1-2.8,0.5-4.1,1.2
	c-14.9,8.2-30,21.4-38.9,30l1.7,1.7c9.4-10.1,21.4-17.8,28.1-19.4c4.5,1.4,7.5,5.4,7.7,10.1c1.2,19.9-30.2,68.9-44.4,88.3
	C573.8,174.1,578.8,175.5,583.9,175.5z"/>
</svg>
