<!-- Generator: Adobe Illustrator 24.3.0, SVG Export Plug-In  -->
<svg version="1.1" xmlns="http://www.w3.org/2000/svg" xmlns:xlink="http://www.w3.org/1999/xlink" x="0px" y="0px" width="1006px" height="380px" viewBox="0 0 1006 380" style="overflow:visible;enable-background:new 0 0 1006 380;" xml:space="preserve">
    <path id="typo-ratio_1_" d="M525.4,204.9v170.9h22.1v-72h30c18.2,0,26.2,6.5,33.1,26.9l15.6,45.1h24l-17.5-49.2c-7.7-21.1-13.2-28.3-25.7-32.2v-0.5c19.7-4.6,32.6-20.9,32.6-42.7c0-29-18.7-46.3-60-46.3H525.4z M547.5,223.8H578c25,0,39.1,9.1,39.1,29c0,18.5-11,32.2-37.7,32.2h-31.9V223.8z M707.6,250.5c-31,0-47.8,17.5-49,40.6h21.1c0.7-14.4,10.1-24.2,27.8-24.2c16.3,0,27.6,8.4,27.6,28.6v4.8c-9.6,0.7-24.5,2.4-35.3,4.1c-35,5.5-46.3,18.2-46.3,38.4c0,20.6,15.8,35.8,41.3,35.8c19.7,0,33.8-7.4,42.2-20.4h0.5c0,6,0.5,11.9,1.7,17.8h19.2c-1.7-7.4-2.9-17.8-2.9-31.2v-46.8C755.6,265.6,737.4,250.5,707.6,250.5z M735.2,323.7c0,14.4-2.4,21.1-9.8,28.8c-6,6.2-15.4,9.6-25.2,9.6c-15.8,0-25-8.4-25-20.9c0-12,7.2-18,28.1-21.1c9.4-1.7,22.6-3.1,31.9-3.8L735.2,323.7z M801.2,378.1c16.6,0,30.5-15.4,38.2-31c1-1.9-2.4-3.4-3.1-1.4c-5.5,16.1-14.9,25-24.5,25c-10.1,0-15.6-9.1-15.6-26.4v-75.4c8.2,0,27.6,0.2,29.5,0.2c7.4-6.7,11.8-11.5,11.8-13c0-0.5-0.5-0.7-8.4-0.5c-7.9,0.2-25.2,0.2-32.4,0.2v-23.3c0-1-0.5-0.7-1-0.2L765,267.7c-0.5,0.5-0.2,1.2,0,1.2h13.2V345C778.2,368.1,785.1,378.1,801.2,378.1z M855.7,232.7c7,0.1,12.7-5.5,12.7-12.5c0,0,0,0,0,0c0-7-5.7-12.7-12.7-12.7c-7,0.1-12.5,5.8-12.5,12.7c0,0,0,0,0,0c0,6.8,5.5,12.4,12.3,12.5C855.6,232.7,855.6,232.7,855.7,232.7L855.7,232.7z M832.9,375.7c7,0,20.6-0.5,24.2-0.5s16.1,0.5,23,0.5c1.9,0,1.9-2.2,0-2.2c-13.4,0-14.4-3.6-14.4-24.2V255c0-1.2-3.6-2.2-4.3-1.7c-9.4,6.5-18,11-30,13.7c-1.9,0.5-1.2,2.4,0.7,1.9c12-2.6,15.4-1.9,15.4,16.3v64.1c0,20.6-1,24.2-14.6,24.2C831,373.6,831,375.7,832.9,375.7z M941.1,378.1c36.2,0,62.9-33.1,62.9-64.1c0-37-25.2-60.7-59-60.7c-37,0-63.4,30.2-63.4,64.8C881.6,354.4,907.3,378.1,941.1,378.1z M945.2,375.5c-27.8,0-43.7-31.9-43.7-61.4c0-35,12.5-58.3,40.6-58.3c26.4,0,42.5,32.2,42.5,62.2C984.6,353.4,970.6,375.5,945.2,375.5z"/>
</svg>
