<!-- Generator: Adobe Illustrator 24.3.0, SVG Export Plug-In  -->
<svg version="1.1" xmlns="http://www.w3.org/2000/svg" xmlns:xlink="http://www.w3.org/1999/xlink" x="0px" y="0px" width="1006px" height="380px" viewBox="0 0 1006 380" style="overflow:visible;enable-background:new 0 0 1006 380;" xml:space="preserve">
    <path id="typo-own_1_" d="M79.8,201.5c-47.5,0-77.5,34.3-77.5,88.8s30,88.8,77.5,88.8s77.5-34.3,77.5-88.8S127.3,201.5,79.8,201.5zM79.8,221.7c33.4,0,54.5,26.6,54.5,68.6s-21.1,68.6-54.5,68.6c-33.6,0-54.5-26.6-54.5-68.6S46.2,221.7,79.8,221.7z M307.5,375.7l32.4-121.9h-21.4l-13,50.9c-4.6,18-9.1,36.7-13.4,54.7h-0.5c-4.3-17.5-8.9-35.8-13.4-53.5l-13.9-52.1h-30.2l-13.9,52.1c-4.8,17.8-9.4,36-13.4,53.5h-0.5c-4.3-18-8.9-36.7-13.4-54.7l-13-50.9h-21.4l32.4,121.9h30.2l14.4-52.8c4.6-17.8,9.1-35,13.4-52.8h0.5c4.3,17.8,8.9,35,13.4,52.8l14.4,52.8H307.5z M407.4,251.2c-16.3,0-29.5,7.4-37,18.7h-0.5v-16.1h-20.4v121.9h21.1v-69.8c0-24.5,14.4-37.4,31.7-37.4c17.5,0,28.1,9.1,28.1,34.6v72.7h21.1v-74.4C451.5,268,435.2,251.2,407.4,251.2z"/>
</svg>
