<!-- Generator: Adobe Illustrator 24.3.0, SVG Export Plug-In  -->
<svg version="1.1" xmlns="http://www.w3.org/2000/svg" xmlns:xlink="http://www.w3.org/1999/xlink" x="0px" y="0px" width="676px" height="424px" viewBox="0 0 676 424" style="overflow:visible;enable-background:new 0 0 676 424;" xml:space="preserve">
    <path id="thats-2_1_" d="M61.1,202.8c-34.8,0-56.6,19.4-56.6,47c0,34.3,24.5,42.5,57.4,50.6c27.6,7,41.8,11.8,41.8,30.7s-13.7,30.2-38.2,30.2c-25.7,0-41.3-13-41.3-41H1.4c0,39.4,24,60,63.8,60c37.2,0,61.2-19.7,61.2-50.4c0-35-25.7-43.2-58.1-51.1c-28.1-7-41.3-12.2-41.3-30.5c0-16.3,12.7-26.6,33.8-26.6c25.2,0,39.1,12,39.1,37.2h22.3C122.3,222,101.9,202.8,61.1,202.8zM195,251.7c-35.8,0-57.8,24.5-57.8,64.3c0,39.8,22.1,64.3,57.8,64.3s58.1-24.5,58.1-64.3S230.8,251.7,195,251.7L195,251.7zM195,269c22.3,0,36,18,36,47c0,29-13.7,47-36,47c-22.1,0-35.8-18-35.8-47C159.3,287,173,269,195,269L195,269z"/>
</svg>
