<!-- Generator: Adobe Illustrator 24.3.0, SVG Export Plug-In  -->
<svg version="1.1" xmlns="http://www.w3.org/2000/svg" xmlns:xlink="http://www.w3.org/1999/xlink" x="0px" y="0px" width="1006px" height="380px" viewBox="0 0 1006 380" style="overflow:visible;enable-background:new 0 0 1006 380;" xml:space="preserve">
    <path id="typo-the_1_" d="M141,21.3V1.6H2v19.7h58.3v151.2h22.3V21.3H141z M172.4,65.9V1.6h-21.1v170.9h21.1v-69.8c0-24.7,14.4-37.4,31.7-37.4c17.5,0,28.1,9.1,28.1,34.6v72.7h21.1V98.1c0-33.4-16.3-50.2-44.2-50.2c-14.2,0-27.8,5.8-36.2,18H172.4zM327.2,159.5c-19.9,0-35.3-13.7-36.2-43.7h91.2c0-10.6-0.7-19.2-2.4-26.2c-6.2-26.2-25.7-42.5-53.3-42.5c-35.5,0-56.6,26.6-56.6,62.6c0,39.8,21.4,66,57.4,66c31.2,0,49.7-18.5,53.8-39.8h-21.6C356.5,149.7,345,159.5,327.2,159.5zM326.5,63.5c18.7,0,32.6,12.5,34.8,36.2h-70.1C293.4,76.5,307,63.5,326.5,63.5z"/>
</svg>
