<!-- Generator: Adobe Illustrator 24.3.0, SVG Export Plug-In  -->
<svg version="1.1" xmlns="http://www.w3.org/2000/svg" xmlns:xlink="http://www.w3.org/1999/xlink" x="0px" y="0px" width="254px"
	 height="140px" viewBox="0 0 254 140" style="overflow:visible;enable-background:new 0 0 254 140;" xml:space="preserve">
<style type="text/css">
	.st0{fill:#AD8484;}
	.st1{fill:#FFFFFF;}
</style>
<g id="chic_사본_1_">
	<path id="패스_6192_2_" class="st1" d="M139.8,84c3.7-0.1,7.4,0.7,10.8,2.4c3,1.5,5.4,3.8,7.2,6.6c1.7,2.9,2.7,6.3,2.9,9.7h-7
		c-0.2-3.5-1.7-6.8-4.2-9.2c-2.6-2.3-6.1-3.5-9.6-3.4c-4.6-0.2-8.9,1.9-11.6,5.6c-2.8,3.7-4.2,8.9-4.2,15.4s1.4,11.6,4.2,15.4
		c2.6,3.7,6.9,5.8,11.4,5.6c3.5,0.1,7-1.1,9.6-3.4c2.6-2.5,4.3-5.8,4.6-9.4h7c-0.5,5.9-2.7,10.5-6.5,13.9s-8.7,5.1-14.8,5.1
		c-4.3,0.1-8.5-1-12.1-3.3c-3.5-2.3-6.2-5.6-7.9-9.4c-1.9-4.6-2.9-9.5-2.8-14.5c-0.1-5,0.8-9.9,2.8-14.5c1.6-3.9,4.4-7.1,7.9-9.4
		C131.2,85,135.5,83.9,139.8,84z M172.9,104.7c1.2-1.8,2.8-3.2,4.8-4.1s4.1-1.4,6.3-1.4c4.3,0,7.6,1.3,10,3.9
		c2.3,2.6,3.5,6.4,3.5,11.4v22.7H191V115c0-3.8-0.7-6.5-2.2-8.1c-1.7-1.7-4-2.6-6.4-2.5c-2.6-0.1-5.2,1-6.9,3
		c-1.8,2-2.8,4.8-2.8,8.4v21.4h-6.5V85h6.5v19.7H172.9z M211.1,89.7c0,1-0.4,2-1.1,2.7c-0.7,0.7-1.7,1.1-2.8,1.1c-1,0-2-0.4-2.7-1.1
		s-1.1-1.7-1.1-2.7s0.4-2,1.1-2.8c0.7-0.7,1.7-1.2,2.7-1.1c1,0,2,0.4,2.8,1.1C210.7,87.7,211.1,88.7,211.1,89.7L211.1,89.7z
		 M205,137.2c-1.4,0-2.5,0.1-3.1,0.1h-1.7c-0.3,0-0.4-0.1-0.4-0.3s0.1-0.3,0.4-0.3c2,0,3.2-0.4,3.7-1.1c0.5-0.8,0.8-2.8,0.8-6.3
		v-19.6c0-2.4-0.3-4-0.8-4.7s-1.8-0.8-3.9-0.3c-0.3,0-0.5,0-0.6-0.2s0-0.3,0.3-0.4c1.6-0.3,3.1-0.8,4.6-1.5c1.6-0.8,3.2-1.7,4.6-2.7
		c0.1-0.1,0.4-0.1,0.8,0.1c0.4,0.1,0.6,0.3,0.6,0.4v28.8c0,3.4,0.3,5.5,0.8,6.3s1.7,1.1,3.6,1.1c0.3,0,0.4,0.1,0.4,0.3
		s-0.1,0.3-0.4,0.3h-1.6c-0.6,0-1.6,0-2.9-0.1c-0.9,0-1.5-0.1-1.8-0.1H207C206.6,137.1,205.9,137.2,205,137.2L205,137.2z
		 M252.3,124.1c-2.1,4-5.1,7.5-8.8,10.1c-3.2,2.4-7.1,3.8-11.1,3.9c-4.7,0.2-9.3-1.6-12.7-4.9c-3.3-3.4-5.1-8-4.9-12.7
		c0-5.3,2.1-10,6.4-14.2s9.1-6.3,14.5-6.3c3-0.1,5.9,0.5,8.6,1.7c2.4,1.1,3.6,2.4,3.6,3.8c0,0.8-0.4,1.6-1,2.1
		c-0.7,0.6-1.6,0.9-2.6,0.9c-0.5,0-0.9-0.2-1.3-0.4c-0.8-0.6-1.4-1.3-2.1-2c-1.2-1.4-2.7-2.6-4.3-3.6c-1.3-0.6-2.7-0.9-4.1-0.9
		c-3.6-0.1-7.1,1.5-9.4,4.3c-2.4,2.9-3.6,6.6-3.6,11.3c-0.2,4.5,1.6,8.9,4.7,12.1c3.2,3.2,7.6,4.9,12.1,4.7c3.1,0.1,6.1-0.8,8.7-2.5
		c2.8-2,5-4.6,6.6-7.6c0-0.1,0.1-0.2,0.2-0.3c0.1,0,0.2,0,0.3,0s0.1,0.1,0.1,0.2C252.4,123.9,252.4,124,252.3,124.1z"/>
</g>
</svg>
