<?xml version="1.0" encoding="utf-8"?>
<!-- Generator: Adobe Illustrator 24.3.0, SVG Export Plug-In . SVG Version: 6.00 Build 0)  -->
<svg version="1.1" xmlns="http://www.w3.org/2000/svg" xmlns:xlink="http://www.w3.org/1999/xlink" x="0px" y="0px"
	 viewBox="0 0 254 140" style="enable-background:new 0 0 254 140;" xml:space="preserve">
<style type="text/css">
	.st0{fill:#AD8484;}
	.st1{fill:#FFFFFF;}
</style>

<g id="레이어_1">
	<g id="chic_사본">
		<g id="logo_1_" transform="translate(127 2446.873)">
			<path id="패스_1_1_" class="st1" d="M-85.3-2389.8c-0.1,2.4,0.5,4.8,1.7,7c0.1,0.2,0.2,0.3,0.2,0.3l-0.7,0.7l-1.2-1.9
				l-29.7-45.6l0,0l-2.2-3.5h-7.7v59h6.5v-42.9c0.1-2.4-0.5-4.8-1.7-7c-0.1-0.1-0.1-0.2-0.2-0.3l0.7-0.7l0.6,0.8l30.4,46.6l2.2,3.5
				h7.7v-59h-6.5L-85.3-2389.8z"/>
			<path id="패스_2_1_" class="st1" d="M-51.5-2417.4c-10.1,0-18.5,8.3-19.9,19.2c-0.1,1.1-0.2,2.2-0.2,3.2c0,0.7,0,1.4,0.1,2.1
				c0.2,2.2,0.7,4.4,1.4,6.5c2,5.8,6.5,10.4,12.2,12.7c4.2,1.6,8.7,1.6,12.9,0c5.7-2.3,10.1-6.9,12.2-12.7h-6.8
				c-2.3,5.1-6.8,8.6-11.8,8.6s-9.4-3.4-11.8-8.6c-0.9-2.1-1.5-4.3-1.7-6.5h33.7v-2.1c0-1.1-0.1-2.2-0.2-3.2
				C-33-2409-41.3-2417.4-51.5-2417.4 M-64.9-2398.2c1.2-7.9,6.8-13.9,13.4-13.9s12.2,6,13.4,13.9H-64.9z"/>
			<path id="패스_3_1_" class="st1" d="M17.9-2375.2c-3.4,0-7.5-2.6-14.5-13.7l-8.3-13.1l1.9-2c8.2-8.5,13.7-12.4,19.1-12.4
				c0.4,0,0.7-0.3,0.7-0.7s-0.3-0.7-0.7-0.7H-1.5c-0.4,0-0.7,0.3-0.7,0.7s0.3,0.7,0.7,0.7c5,0,4.3,4.2-3.2,11.9l-13,13.7v-51.1
				c0-0.5-0.3-1-0.8-1.2c-0.3-0.1-0.6-0.1-0.9,0l-9.7,3.4c-0.6,0.2-0.8,0.8-0.6,1.4c0.2,0.5,0.8,0.8,1.3,0.6l0.5-0.2
				c1.5-0.5,3.1,0.4,3.5,1.8c0.1,0.3,0.1,0.6,0.1,0.8v58.2c0,0.9-0.7,1.7-1.7,1.7l0,0h-2.7c-0.4,0-0.7,0.3-0.7,0.7s0.3,0.7,0.7,0.7
				l0,0h16.4c0.4,0,0.7-0.3,0.7-0.7s-0.3-0.7-0.7-0.7l0,0h-5.5v-13.3l8.7-9.2L-2-2386c4,6.8,6.3,10.1,8.5,11.5
				c1,0.6,2.1,0.9,3.3,0.9H18c0.4,0,0.7-0.4,0.7-0.8C18.6-2374.8,18.3-2375.1,17.9-2375.2"/>
			<path id="패스_4_1_" class="st1" d="M111-2417.9c-0.3-0.7-3.5-0.8-6.2-0.8H104c-0.4,0-0.8,0-1.1,0c-1.3,0.1-2.6,0.4-3.8,0.8
				c-4.5,1.9-9,6.7-14.7,13.8c1-2.5,1.4-3.8,1.3-5.4c-0.1-2.2-1.7-8.6-5.2-8.6c-0.6,0-1.2,0.2-1.7,0.5c-4.2,2.5-8.2,5.4-11.9,8.7
				l0,0c0,0-0.1,0.1-0.2,0.2c-0.1,0.1-0.1,0.1-0.2,0.2c-0.4,0.4-1.1,1-1.6,1.4l0,0c-0.3,0.3-0.3,0.8,0,1.1s0.8,0.3,1.1,0l0,0
				c1-1,2.1-2,3.2-2.8l0,0c1.5-1.2,3.1-2.2,4.9-3.1c0.5-0.2,1-0.3,1.5-0.3c0.8,0,1.5,0.4,1.9,1.1c0.4,0.6,0.6,1.2,0.6,1.9
				c0.4,6.5-9.4,21.7-12.5,26.2l-2.4,3.6l-0.2,0.2v0.1l-0.1,0.2c-0.2,0.3-0.4,0.6-0.5,0.9c-0.3,0.9-0.2,2,0.4,2.8
				c0.5,0.8,1.4,1.4,2.4,1.6c0.2,0,0.4,0,0.5,0c1.2,0,2.3-0.6,2.9-1.6l7.9-12.7l0.3-0.6c6.9-11.4,11.5-19,16.3-21.9
				c1.2-0.7,2.6-1,4-1c0.5,0,1.1,0.1,1.6,0.1h0.1c1.2,0.1,2.2,0.3,3.2,0.5c1.1,0.2,2.1,0.3,3.2,0.4h0.1c1.7-0.4,5.6-5.3,5.8-7.4
				v-0.1L111-2417.9z"/>
			<path id="패스_5_1_" class="st1" d="M64.7-2395.5L64.7-2395.5c-0.5-0.2-1.1,0-1.4,0.5c-5.2,10.8-11.9,16.5-21.1,16.5
				c-11.5,0-20.3-7.8-20.3-18.2c0-2.1,0.2-4.2,0.6-6.3h29c2.4,0,3.8-1,4-3c0.2-2.7-0.7-5.3-2.5-7.3c-1.9-2.1-5.7-4.7-12.9-4.7
				c-12.6,0-24.4,11.9-24.4,24.5c0,12.4,9.1,21.4,22.1,21.4c15.4,0,24.6-16,27.4-22C65.5-2394.6,65.3-2395.2,64.7-2395.5
				C64.8-2395.5,64.7-2395.5,64.7-2395.5 M23-2405.4L23-2405.4c3.6-9.7,11.6-10.1,14.2-10.1c0.3,0,0.5,0,0.5,0
				c1.9,0.1,3.7,0.5,5.4,1.2c0.8,0.4,1.6,0.9,2.3,1.5c0.1,0.1,0.2,0.2,0.3,0.3c0.4,0.3,0.7,0.7,1,1c0.7,0.9,1,2,0.8,3.2
				c0,0.3-0.1,0.5-0.3,0.7v0.1c0,0-0.1,0.1-0.1,0.2c-1,1.7-3.4,2-4.7,2c-0.1,0-0.1,0-0.1,0H22.9L23-2405.4z"/>
		</g>
	</g>
</g>
<g id="레이어_2">
</g>
</svg>
