<?xml version="1.0" encoding="utf-8"?>
<!-- Generator: Adobe Illustrator 24.3.0, SVG Export Plug-In . SVG Version: 6.00 Build 0)  -->
<svg version="1.1" id="레이어_1" xmlns="http://www.w3.org/2000/svg" xmlns:xlink="http://www.w3.org/1999/xlink" x="0px"
	 y="0px" viewBox="0 0 378 140" style="enable-background:new 0 0 378 140;" xml:space="preserve">
<style type="text/css">
	.st0{fill:#991C1C;}
	.st1{fill:#FFFFFF;}
</style>

<path id="typo-h" class="st1" d="M309.9,69.2c-1.5,0.1-2.5,0.1-3.2,0.1h-1.8c-0.3,0-0.5-0.1-0.5-0.4c0-0.2,0.2-0.4,0.5-0.4
	c1.6,0,2.6-0.4,3-1.3s0.6-3.4,0.6-7.6V14.3c0-1.3,0-2.4-0.1-3.3c0-0.7-0.2-1.3-0.4-2c-0.2-0.6-0.7-1-1.3-1.2
	c-1.1-0.1-2.2-0.1-3.3,0.2c-0.3,0.1-0.5,0-0.5-0.3s0.2-0.4,0.5-0.4c1.6-0.3,3.2-0.8,4.8-1.3c1.7-0.6,3.4-1.4,5-2.3
	c0.2-0.1,0.4-0.1,0.8,0.1c0.4,0.2,0.6,0.3,0.6,0.5v32.4c1.9-2.6,4.3-4.8,7-6.5c2.4-1.4,5-2.1,7.7-2.1c4.4,0,7.7,1.4,9.9,4.1
	c2.2,2.7,3.3,6.8,3.3,12.3v20.7c-0.1,0.9,0.2,1.9,0.7,2.7c0.5,0.5,1.5,0.7,3.1,0.6c0.3,0,0.5,0.1,0.5,0.4c0,0.2-0.2,0.4-0.5,0.4
	h-0.6c-0.3,0-1,0-1.9-0.1c-1.5,0-2.6,0-3.2,0s-1.1,0-1.4,0h-0.7c-0.3,0-0.9,0-1.8,0.1c-1.3,0.1-2.3,0.1-2.9,0.1h-1.7
	c-0.3,0-0.5-0.1-0.5-0.4c0-0.2,0.2-0.4,0.5-0.4c1.6,0,2.6-0.2,3.1-0.6c0.6-0.6,0.9-1.5,0.9-2.3c0.1-0.6,0.1-1.3,0.2-2.3
	c0.1-0.9,0.1-2.1,0.1-3.6V43.7c0-4.2-0.8-7.5-2.5-9.8c-1.7-2.2-4.3-3.5-7.1-3.4c-2.2,0-4.4,0.5-6.4,1.6c-2.2,1.5-4.2,3.4-5.7,5.6
	v30.8h4.9c0.3,0,0.5,0.1,0.5,0.4c0,0.2-0.2,0.4-0.5,0.4H319c-0.3,0-0.9,0-1.8-0.1c-1.5,0-2.5,0-3.1,0s-1.1,0-1.3,0H312
	C311.5,69.1,310.9,69.1,309.9,69.2L309.9,69.2z"/>
<path id="typo-c" class="st1" d="M308.2,54.7c-2.3,4.4-5.6,8.2-9.6,11.1c-3.5,2.7-7.8,4.1-12.2,4.2c-5.7,0-10.4-1.8-14-5.4
	s-5.4-8.3-5.4-14c0-5.8,2.4-11,7.1-15.7s10-6.9,15.9-6.9c3.3-0.1,6.5,0.6,9.5,1.9c2.7,1.2,4,2.6,4,4.2c0,0.9-0.4,1.7-1.1,2.3
	c-0.8,0.7-1.8,1-2.8,1c-0.5,0-1-0.2-1.5-0.5c-0.8-0.6-1.6-1.4-2.3-2.2c-1.3-1.6-2.9-2.9-4.7-3.9c-1.4-0.7-2.9-1-4.5-1
	c-4-0.1-7.8,1.6-10.4,4.7c-2.7,3.1-4,7.3-4,12.5c-0.2,5,1.7,9.8,5.2,13.3s8.3,5.4,13.3,5.2c3.4,0.1,6.7-0.9,9.6-2.7
	c3.1-2.2,5.6-5,7.3-8.4c0-0.1,0.1-0.3,0.2-0.3c0.1-0.1,0.2-0.1,0.3,0c0.1,0,0.2,0.1,0.2,0.2C308.3,54.5,308.3,54.6,308.2,54.7
	L308.2,54.7z"/>
<path id="typo-u" class="st1" d="M242.2,70.1c-4.7,0-8.4-1.4-10.9-4.3c-2.6-2.9-3.8-7-3.8-12.6v-25h7.1v24.5c0,4.1,0.8,7.1,2.4,8.9
	c1.6,1.8,4,2.7,7,2.7c2.9,0.1,5.7-1.2,7.6-3.3c2-2.2,3.1-5.3,3.1-9.2V28.3h7.1v41h-6.9v-5.4h-0.2c-1.3,2-3.1,3.5-5.2,4.6
	C247.3,69.6,244.7,70.2,242.2,70.1L242.2,70.1z"/>
<path id="typo-o_1_" class="st1" d="M202.8,27.1c6,0,10.8,1.9,14.3,5.8s5.2,9.1,5.2,15.8s-1.7,11.9-5.2,15.8s-8.3,5.8-14.3,5.8
	s-10.8-1.9-14.2-5.8s-5.2-9.1-5.2-15.8s1.7-11.9,5.2-15.8S196.7,27.1,202.8,27.1L202.8,27.1z M202.8,32.9c-3.5-0.1-6.7,1.5-8.8,4.2
	c-2.2,2.8-3.2,6.7-3.2,11.6s1.1,8.8,3.2,11.6c2.1,2.8,5.3,4.4,8.8,4.2c3.5,0.1,6.8-1.4,8.9-4.2c2.2-2.8,3.2-6.7,3.2-11.6
	s-1.1-8.8-3.2-11.6C209.6,34.4,206.2,32.8,202.8,32.9L202.8,32.9z"/>
<path id="typo-t_1_" class="st1" d="M180.2,63.7c1,0,2-0.1,2.9-0.4v5.8c-1.5,0.4-3,0.5-4.5,0.5c-3.9,0-6.8-0.9-8.5-2.7
	s-2.6-4.8-2.6-9v-24h-7.1v-5.6h7.1v-9.9h7.1v9.9h8.2v5.6h-8.2v23.2c0,2.4,0.4,4.1,1.3,5.1C176.7,63.2,178.2,63.7,180.2,63.7z"/>
<path id="typo-s" class="st1" d="M143,27.1c5.1,0,9,1.2,11.8,3.6S159,36.6,159,41h-7c0.2-2.3-0.7-4.6-2.4-6.3
	c-1.9-1.6-4.3-2.3-6.7-2.2c-2.1-0.1-4.1,0.4-5.9,1.6c-1.4,1-2.2,2.6-2.1,4.2c-0.1,1.2,0.3,2.3,1,3.2c0.8,0.8,1.8,1.4,2.9,1.8
	c1.2,0.4,3.2,1,6,1.6s5.6,1.4,8.3,2.4c2,0.8,3.7,2,5.1,3.7c1.5,2,2.3,4.5,2.1,7c0.1,3.5-1.6,6.9-4.4,8.9c-2.9,2.2-6.9,3.3-11.8,3.3
	c-5.4,0-9.6-1.3-12.6-3.8s-4.5-6.2-4.6-11h7.2c-0.2,2.5,0.8,5,2.6,6.7c1.7,1.6,4.2,2.4,7.5,2.4c2.3,0.1,4.5-0.5,6.5-1.7
	c1.5-1,2.4-2.6,2.4-4.4c0.1-1.3-0.3-2.6-1.1-3.6c-0.9-1-2-1.7-3.3-2.1c-1.5-0.5-3.7-1.1-6.9-1.9c-2.5-0.6-5.1-1.3-7.5-2.2
	c-1.8-0.7-3.3-1.8-4.5-3.3c-1.4-1.9-2-4.2-1.9-6.5c-0.1-3.4,1.5-6.6,4.2-8.6C134.8,28.2,138.5,27.1,143,27.1L143,27.1z"/>
<path id="typo-i" class="st1" d="M114.3,69.3v-41h7.1v41H114.3z M114.3,19.8v-8h7.1v8H114.3z"/>
<path id="typo-o" class="st1" d="M89.2,27.1c6,0,10.8,1.9,14.3,5.8s5.2,9.1,5.3,15.8c0,6.7-1.7,11.9-5.2,15.8s-8.3,5.8-14.3,5.8
	S78.4,68.5,75,64.6c-3.5-3.9-5.2-9.1-5.2-15.8S71.5,36.9,75,33S83.2,27.1,89.2,27.1z M89.2,32.9c-3.5-0.1-6.7,1.5-8.8,4.2
	c-2.2,2.8-3.2,6.7-3.2,11.6s1.1,8.8,3.2,11.6s5.3,4.4,8.8,4.2c3.5,0.1,6.8-1.4,8.9-4.2c2.2-2.8,3.2-6.7,3.2-11.6s-1.1-8.8-3.2-11.6
	C96,34.4,92.7,32.8,89.2,32.9L89.2,32.9z"/>
<path id="typo-m" class="st1" d="M55.6,69.3V40c0-4.8,0.1-12.2,0.2-22h-0.2c-1.9,5.6-4.2,11.9-6.8,19.1l-1,2.9L37.1,69.3h-8.6
	L17.9,40l-1-2.9C14.2,30,12,23.7,10,18.1H9.9C10,27.9,10,35.2,10,40v29.2H2.8V11.8h11.9l10.4,28.3c2.6,7.3,5.1,14.6,7.6,22h0.2
	c2.5-7.4,5-14.8,7.6-22l10.3-28.3h12v57.5H55.6z"/>
</svg>
