<!-- Generator: Adobe Illustrator 24.3.0, SVG Export Plug-In  -->
<svg version="1.1" xmlns="http://www.w3.org/2000/svg" xmlns:xlink="http://www.w3.org/1999/xlink" x="0px" y="0px" width="378px"
	 height="140px" viewBox="0 0 378 140" style="overflow:visible;enable-background:new 0 0 378 140;" xml:space="preserve">
<style type="text/css">
	.st0{fill:#991C1C;}
	.st1{fill:#FFFFFF;}
</style>
<g id="pure_2_">
	<path id="패스_6183_2_" class="st1" d="M237,77.6c6.8,0,12,1.6,15.6,4.8c3.6,3.2,5.4,7.6,5.4,13.3c0,5.6-1.8,10-5.4,13.3
		c-3.6,3.2-8.8,4.8-15.6,4.8h-12.8v23.7h-7.7V77.6H237z M224.2,107h12.2c4.5,0,7.9-1,10.1-3c2.3-2,3.4-4.8,3.4-8.4s-1.1-6.4-3.4-8.4
		c-2.3-2-5.7-3-10.1-3h-12.2V107z M277.7,138.4c-4.9,0-8.7-1.5-11.4-4.5c-2.7-3-4-7.3-4-13.1v-26h7.4v25.5c0,4.3,0.8,7.4,2.5,9.3
		s4.1,2.8,7.3,2.8c3,0.1,5.9-1.2,7.9-3.5c2.1-2.3,3.2-5.5,3.2-9.6V94.8h7.4v42.7h-7.1v-5.6h-0.2c-1.4,2-3.2,3.7-5.4,4.8
		C282.9,137.9,280.3,138.5,277.7,138.4z M326.8,94.3c1,0,2.1,0.1,3.1,0.3v6.6c-1.9-0.2-2.8-0.3-2.9-0.3c-4,0-7.2,1.3-9.3,3.8
		c-2.2,2.5-3.3,6.1-3.3,10.9v21.8H307V94.8h7.1v6.6h0.2C316.7,96.8,321.6,94.1,326.8,94.3L326.8,94.3z M363.3,134.4
		c-1.9,1.3-4,2.3-6.2,3c-2.1,0.6-4.3,1-6.5,1c-6.3,0-11.4-1.9-15.3-5.6c-3.9-3.8-5.8-8.6-5.8-14.6c0-3,0.6-5.9,1.9-8.6
		c1.3-2.9,3.1-5.5,5.3-7.7c2.2-2.3,4.8-4.1,7.7-5.3c2.7-1.2,5.6-1.9,8.6-1.9c1.9,0,3.8,0.2,5.6,0.6c1.6,0.4,3,1,4.4,1.9
		c1.6,1,2.8,2.4,3.7,4c0.8,1.5,1.1,3.1,0.9,4.8c0,0.8-0.4,1.5-1,2c-0.8,0.5-1.6,0.7-2.5,0.6h-28.7c-0.2,1-0.4,2-0.5,3.1
		s-0.2,2.3-0.2,3.4c-0.1,5,2.1,9.8,5.9,13.1c4,3.6,9.1,5.5,14.5,5.3c4.4,0.1,8.6-1.3,12.1-4c3.4-2.6,6.4-6.8,9-12.4
		c0.2-0.5,0.4-0.7,0.6-0.6s0.2,0.4,0,0.8c-1.5,3.6-3.4,6.9-5.8,10C368.7,130,366.2,132.4,363.3,134.4L363.3,134.4z M360.2,104.1
		c0-2.1-1.1-4.1-2.7-5.3c-2-1.6-4.4-2.4-6.9-2.3c-3.5-0.1-6.8,0.9-9.6,3c-2.7,2.1-4.6,5.1-5.4,8.5c1.9,0,3.8,0,5.7,0
		s4.4-0.1,7.4-0.1c2.2-0.1,3.8-0.1,4.8-0.1s1.9,0,2.7,0c0.7,0,1.4-0.1,2-0.3c0.5-0.1,0.9-0.2,1.3-0.5c0.3-0.3,0.4-0.7,0.5-1.1
		C360.1,105.1,360.2,104.6,360.2,104.1L360.2,104.1z"/>
</g>
</svg>
