<!-- Generator: Adobe Illustrator 24.3.0, SVG Export Plug-In  -->
<svg version="1.1" xmlns="http://www.w3.org/2000/svg" xmlns:xlink="http://www.w3.org/1999/xlink" x="0px" y="0px" width="990px"
	 height="368px" viewBox="0 0 990 368" style="overflow:visible;enable-background:new 0 0 990 368;" xml:space="preserve">
<style type="text/css">
	.st0{fill:#9E3535;}
	.st1{fill:#FFFFFF;}
</style>
<path id="패스_6210_2_" class="st1" d="M752.7,286.2c0,27.9-13.4,41.8-40.2,41.8c-3.4,0.1-6.7-0.3-10-1.2v-16.4
	c2.8,0.6,5.7,0.9,8.6,1c7.9,0,13.7-2.1,17.5-6.4s5.7-11.3,5.7-21.2v-99.2h18.4V286.2z M843.3,307.2c-5.6,7.5-11.4,13-17.4,16.5
	c-5.9,3.5-12.7,5.3-19.6,5.3c-10.8,0-18.9-3.4-24.2-10.1c-5.3-6.7-8-16.9-8-30.5v-36.8c0-3.3-0.1-6-0.3-8.1
	c-0.1-1.6-0.5-3.2-1.1-4.7c-0.5-1.3-1.6-2.4-3-2.8c-1.3-0.4-4.1-0.2-8.4,0.6c-0.8,0.1-1.2-0.1-1.2-0.7c0-0.6,0.4-1,1.2-1.1
	c4.1-0.8,8.2-1.9,12.1-3.3c4.3-1.5,8.4-3.5,12.3-5.7c0.4-0.3,1.1-0.2,2.1,0.2s1.5,0.8,1.5,1.2v63.2c0,10.5,2,18.6,6.1,24.2
	c4.1,5.6,9.9,8.4,17.5,8.4c5.6,0.1,11.2-1.4,16-4.2c4.7-2.8,9.5-7.5,14.4-14.2v-53c0-3.3-0.1-6-0.3-8.1c-0.1-1.6-0.5-3.2-1.1-4.7
	c-0.5-1.3-1.6-2.4-3-2.8c-1.3-0.4-4.1-0.2-8.4,0.6c-0.8,0.1-1.2-0.1-1.2-0.7c0-0.6,0.4-1,1.2-1.1c4-0.8,8-1.9,11.9-3.3
	c4.2-1.6,8.3-3.5,12.3-5.7c0.4-0.3,1.1-0.2,2.1,0.2s1.5,0.8,1.5,1.2v76c0,10.1,0.5,16.3,1.6,18.6c1.1,2.3,4.1,3.4,9,3.4
	c0.7,0,1,0.3,1,0.9c0,0.6-0.3,0.9-1,0.9c-2.4,0-5.8,0.2-10.1,0.5c-4.3,0.3-9.6,0.8-15.9,1.5c-0.4,0.1-0.8,0.1-1.2-0.1
	c-0.3-0.2-0.4-0.8-0.4-1.7c0-0.2,0-0.4,0.1-0.6c0.1-0.3,0.2-0.8,0.3-1.6c0.5-3.7,0.9-7,1.2-9.7C843.1,312.6,843.3,309.9,843.3,307.2
	L843.3,307.2z M903.2,295.8c-1.9,2.8-3.9,6-6.2,9.7s-6.5,10.6-12.6,20.7c-1.9,0.1-3.2,0.2-3.9,0.3s-1.4,0.1-2.1,0.1
	c-3.2,0-5.3-0.7-6.2-2.1c-0.9-1.4-0.9-3.6,0.2-6.5c9.9-13.4,18.7-27.6,26.4-42.4c7.5-14.4,11-24.8,10.6-31.2
	c-0.1-1.9-0.8-3.8-1.9-5.3c-1.1-1.5-2.7-2.6-4.5-3.1c-3.1,0.8-6.8,2.7-11.1,5.7c-4.4,3.1-8.5,6.6-12.1,10.5l-1.4-1.4
	c5.2-5,10.6-9.8,16.3-14.2c5-4,10.3-7.6,15.9-10.8c0.7-0.3,1.3-0.5,1.9-0.7c0.5-0.2,1-0.3,1.5-0.3c2.8,0,5.3,2.1,7.5,6.2
	c2.2,4.1,3.4,8.6,3.7,13.2c0.3,3.6-0.8,8.4-3.2,14.5c-2.4,6.1-7,15-13.8,26.7c11.4-14.3,24.3-27.4,38.3-39.1
	c14.7-12.5,25.8-19.8,33.3-21.9c6.8,1.5,9.5,6.5,8,15c-1.5,8.5-7.1,20.9-16.8,37.2c-0.9,1.6-2.4,4.2-4.4,7.7c-2,3.5-3.5,6.2-4.6,7.9
	c-1.8,3.2-3.5,6.6-4.8,10.1c-0.9,2.1-1.3,4.4-1.2,6.7c0.1,1.8,0.7,3.6,1.7,5.1c1,1.4,2.4,2.4,4.1,2.9c4.2-1.6,8.2-3.8,11.8-6.5
	c4.5-3.1,8.6-6.6,12.4-10.5l1.2,1.4c-6,5.9-11.5,10.8-16.5,14.8c-4.6,3.7-9.4,7.1-14.5,10.2c-0.5,0.2-1,0.4-1.5,0.5
	c-0.8,0.1-1.7,0.1-2.5,0.1c-1,0-2.1-0.1-3.1-0.2c-0.7,0-1.3-0.2-1.9-0.6c-2.3-1.9-4.2-4.3-5.3-7.1c-1.3-2.7-2.1-5.7-2.3-8.7
	c0-2.6,0.5-5.1,1.6-7.4c1.7-4,3.6-7.9,5.8-11.6c1.2-2.3,3-5.4,5.5-9.4c2.5-4,4.2-6.8,5.1-8.4c6.8-11.7,11.1-20.5,13-26.2
	c1.9-5.7,1.3-10-1.6-12.8c-7.3,2.3-17.7,9.4-31,21.5C924.9,267.9,913.2,281.2,903.2,295.8z"/>
</svg>
