<!-- Generator: Adobe Illustrator 24.3.0, SVG Export Plug-In  -->
<svg version="1.1" xmlns="http://www.w3.org/2000/svg" xmlns:xlink="http://www.w3.org/1999/xlink" x="0px" y="0px" width="990px"
	 height="368px" viewBox="0 0 990 368" style="overflow:visible;enable-background:new 0 0 990 368;" xml:space="preserve">
<style type="text/css">
	.st0{fill:#9E3535;}
	.st1{fill:#FFFFFF;}
</style>

<path id="패스_6210_3_" class="st1" d="M452.3,327v-65.8h-72.6V327h-18.4V184.6h18.4V245h72.6v-60.4h18.6V327H452.3z M534.5,331.6
	c-3.3,8.8-6.8,15.6-10.5,20.3c-3.3,4.4-7.7,7.9-12.8,10c-4.9,1.9-11,2.9-18.5,2.9c-3.1,0.1-6.2-0.2-9.2-1V349
	c2.7,0.8,5.6,1.3,8.4,1.2c3.8,0.1,7.6-0.5,11.1-2c3.1-1.5,5.7-3.9,7.5-6.8c2.7-4.4,4.9-9.1,6.6-14l-38.6-102h19l29.2,80.8h0.4
	l29.6-80.8h18.6L534.5,331.6z M619.5,316.2c7.2,0,13.2-1.8,17.9-5.4c4.6-3.5,7.8-8.5,8.9-14.2h18c-1.8,9.4-7,17.8-14.5,23.7
	c-7.8,6.3-17.9,9.5-30.3,9.5c-9.9,0-18.4-2.3-25.6-6.8c-7.3-4.6-13-11.3-16.5-19.2c-3.8-8.3-5.7-17.9-5.7-29
	c-0.2-9.3,1.8-18.5,5.7-26.9c3.6-7.7,9.3-14.1,16.4-18.6c7.1-4.5,15.5-6.7,25.1-6.7c11.3,0,20.9,3.1,28.7,9.4s13,14.9,15.7,26
	c1.3,5.5,2,12.7,2,21.8h-76c0.4,12,3.4,21.1,8.9,27.2S610.8,316.2,619.5,316.2L619.5,316.2z M618.9,236.2c-8.3,0-15,2.6-20.2,7.9
	s-8.3,12.7-9.2,22.3h58.4c-0.9-9.7-4-17.2-9.2-22.4C633.5,238.8,626.9,236.2,618.9,236.2L618.9,236.2z"/>
</svg>
