<!-- Generator: Adobe Illustrator 24.3.0, SVG Export Plug-In  -->
<svg version="1.1" xmlns="http://www.w3.org/2000/svg" xmlns:xlink="http://www.w3.org/1999/xlink" x="0px" y="0px" width="990px"
	 height="368px" viewBox="0 0 990 368" style="overflow:visible;enable-background:new 0 0 990 368;" xml:space="preserve">
<style type="text/css">
	.st0{fill:#9E3535;}
	.st1{fill:#FFFFFF;}
</style>
<path id="so_1_" class="st1" d="M575.2,1.8c16.9,0,29.7,3.9,38.2,11.8c8.5,7.9,12.8,19.5,12.8,35h-18.6c0-10.4-2.8-18.2-8.3-23.3
	s-13.6-7.7-24.3-7.7c-8.8,0-15.7,2-20.7,6s-7.5,9.4-7.5,16.2c0,4.9,1.2,8.9,3.6,11.9c2.4,3,6,5.5,10.7,7.4
	c6.6,2.5,13.3,4.5,20.1,6.1c9,2,17.8,4.8,26.3,8.2c6.4,2.6,11.9,6.9,16,12.4c4.1,5.5,6.1,12.8,6.1,22c0.2,7.8-2,15.5-6.3,22.1
	c-4.4,6.5-10.6,11.6-17.8,14.7c-7.7,3.5-16.6,5.2-26.9,5.2c-16.8,0-29.9-4.3-39.2-12.8c-9.3-8.5-14-20.9-14-37.2h19
	c0,11.5,3,20,9,25.7c6,5.7,14.5,8.5,25.4,8.5c10.1,0,18-2.2,23.5-6.6c5.5-4.4,8.3-10.6,8.3-18.6c0-5.1-1.2-9.1-3.7-12.2
	c-2.9-3.4-6.6-5.9-10.8-7.3c-6.7-2.4-13.4-4.4-20.3-6.1c-10.9-2.7-19.7-5.4-26.2-8.3c-6.2-2.6-11.7-6.9-15.7-12.3
	C530,57.3,528,50.1,528,41c-0.1-7.2,1.9-14.3,5.8-20.3c4.1-6.1,9.8-10.9,16.5-13.9C557.5,3.5,565.8,1.8,575.2,1.8L575.2,1.8z
	 M685.8,42.6c14.9,0,26.7,4.8,35.4,14.4c8.7,9.6,13,22.7,13,39.2s-4.3,29.6-13,39.2c-8.7,9.6-20.5,14.4-35.4,14.4
	s-26.7-4.8-35.3-14.4c-8.6-9.6-12.9-22.7-12.9-39.2s4.3-29.6,12.9-39.2C659.1,47.4,670.9,42.6,685.8,42.6L685.8,42.6z M685.8,57
	c-9.2,0-16.5,3.5-21.8,10.5s-8,16.6-8,28.7s2.7,21.7,8,28.7s12.6,10.5,21.8,10.5c9.3,0,16.7-3.5,22-10.5s8-16.6,8-28.7
	s-2.7-21.7-8-28.7S695.2,57,685.8,57L685.8,57z"/>
</svg>
