<?xml version="1.0" encoding="utf-8"?>
<!-- Generator: Adobe Illustrator 24.3.0, SVG Export Plug-In . SVG Version: 6.00 Build 0)  -->
<svg version="1.1" id="레이어_1" xmlns="http://www.w3.org/2000/svg" xmlns:xlink="http://www.w3.org/1999/xlink" x="0px"
	 y="0px" viewBox="0 0 324 140" style="enable-background:new 0 0 324 140;" xml:space="preserve">
<style type="text/css">
	.st0{fill:#AA7777;}
	.st1{fill:#FFFFFF;}
</style>

<g id="dream_사본">

	<path id="rr" class="st1" d="M229.8,67.4c-0.3,0-0.6,0.1-0.9,0.1h-0.6c-1.2,0-2-0.3-2.4-0.8c-0.4-0.8-0.3-1.8,0.1-2.6
		c3.9-5.3,7.5-11,10.6-16.9c3-5.7,4.4-9.9,4.2-12.4c0-0.8-0.3-1.5-0.8-2.1c-0.4-0.6-1.1-1-1.8-1.2c-1.6,0.5-3.2,1.3-4.5,2.3
		c-1.8,1.2-3.4,2.6-4.8,4.1l-0.6-0.6c2.1-2,4.3-3.9,6.6-5.7c2-1.6,4.1-3,6.4-4.2c0.3-0.1,0.5-0.2,0.8-0.3c0.2-0.1,0.4-0.1,0.6-0.1
		c1.2,0.1,2.2,0.9,3,2.5c0.9,1.6,1.3,3.4,1.4,5.2c0,1.1-0.2,2.3-0.5,3.3c-0.6,1.7-1.2,3.4-2,5c2.7-3.6,5.6-7.1,8.7-10.4
		c1.7-1.9,3.8-3.5,6.1-4.7c0.5-0.2,0.9-0.4,1.4-0.6c0.4-0.1,0.8-0.3,1.2-0.3c1.7-0.2,3.5-0.2,5.2-0.1c1.9,0.1,3,0.3,3.1,0.6
		c-0.1,0.8-0.7,2-2,3.5c-1.3,1.5-2.3,2.3-3,2.4c-0.3,0-0.7,0-1-0.1c-0.4-0.1-1-0.2-1.8-0.3c-1.5-0.2-2.7-0.4-3.6-0.4
		c-0.9-0.1-1.8-0.1-2.6-0.1c-0.2,0.1-0.5,0.2-0.7,0.3c-0.3,0.1-0.5,0.3-0.8,0.4c-2.2,1.3-4.1,3-5.6,5.1c-2,2.5-5.6,8.1-10.8,16.9
		c-0.3,0.4-0.6,0.9-0.9,1.4l-1.4,2.4c-1.3,2.2-2.4,3.8-3.1,5c-0.7,1.2-1.4,2.3-2,3.3h-0.3C230.2,67.3,230,67.4,229.8,67.4
		L229.8,67.4z"/>
	<path id="ee" class="st1" d="M219.4,64.7c-1.8,1.2-3.8,2.2-5.9,2.8c-2,0.6-4.1,0.9-6.2,0.9c-6,0-10.8-1.8-14.5-5.3
		c-3.7-3.6-5.7-8.6-5.6-13.8c0-2.8,0.6-5.6,1.8-8.2c1.2-2.7,2.9-5.2,5-7.3s4.6-3.9,7.3-5.1c2.6-1.2,5.3-1.8,8.2-1.8
		c1.8,0,3.6,0.2,5.4,0.6c1.5,0.3,2.9,0.9,4.2,1.8c1.5,0.9,2.7,2.3,3.5,3.8c0.8,1.4,1.1,3,0.9,4.5c0,0.7-0.4,1.4-1,1.9
		c-0.7,0.4-1.6,0.7-2.4,0.6h-27.3c-0.2,1-0.4,1.9-0.5,2.9c-0.1,1.1-0.2,2.1-0.2,3.2c-0.1,4.8,2,9.3,5.6,12.4
		c3.8,3.4,8.7,5.2,13.8,5.1c4.2,0.1,8.2-1.2,11.5-3.7s6.1-6.4,8.6-11.7c0.2-0.5,0.4-0.7,0.6-0.6s0.2,0.3,0,0.8
		c-1.4,3.4-3.3,6.5-5.5,9.4C224.6,60.6,222.2,62.9,219.4,64.7L219.4,64.7z M216.5,36.1c0-2-1-3.9-2.6-5.1c-1.9-1.5-4.2-2.3-6.6-2.2
		c-3.3-0.1-6.5,0.9-9.2,2.8c-2.6,2-4.4,4.8-5.2,8c1.8,0,3.6,0,5.4,0c1.8,0,4.1-0.1,7.1-0.1c2.1-0.1,3.6-0.1,4.5-0.1s1.8,0,2.6,0
		c0.6,0,1.3-0.1,1.9-0.3c0.4-0.1,0.9-0.2,1.3-0.4c0.2-0.3,0.4-0.7,0.5-1.1C216.4,37.1,216.5,36.6,216.5,36.1L216.5,36.1z"/>
	<path id="yy" class="st1" d="M172.7,69.5c-1,2.9-2.4,5.6-4.2,8.1c-1.3,1.8-3.1,3.1-5.1,4c-2.4,0.8-4.9,1.2-7.4,1.2
		c-1.2,0-2.5-0.1-3.7-0.4v-5.9c1.1,0.3,2.2,0.5,3.4,0.5c1.5,0.1,3-0.2,4.4-0.8c1.2-0.6,2.3-1.5,3-2.7c1.1-1.8,2-3.6,2.6-5.6
		l-15.4-40.6h7.6l11.7,32.1h0.2l11.8-32.1h7.4L172.7,69.5z"/>
	<path id="aa" class="st1" d="M118,39.5c0.1-3.7,1.8-7.3,4.6-9.7c2.8-2.4,6.7-3.7,11.7-3.7l0,0c5.1,0,9,1.3,11.8,3.9
		s4.2,6.5,4.2,11.7v15.5c-0.1,3.5,0.3,6.9,1,10.3h-6.4c-0.4-1.9-0.6-3.9-0.6-5.9h-0.2c-1.4,2.1-3.4,3.9-5.7,5
		c-2.6,1.2-5.5,1.8-8.4,1.8c-4.2,0-7.5-1.1-10-3.3c-2.5-2.1-3.9-5.3-3.8-8.6c-0.1-3.2,1.1-6.2,3.5-8.3c2.3-2,6.3-3.5,12-4.4
		c3.9-0.6,7.9-1.1,11.8-1.4V41c0-3.2-0.8-5.6-2.4-7.2c-1.9-1.6-4.3-2.5-6.8-2.3c-2.4-0.2-4.8,0.6-6.7,2.2c-1.6,1.5-2.6,3.6-2.6,5.8
		 M143.5,47.9c-4.1,0.3-7.7,0.7-10.6,1.3c-3.4,0.5-5.8,1.3-7.2,2.4c-1.4,1.1-2.2,2.8-2.1,4.6c-0.1,1.9,0.7,3.8,2.2,5.1
		c1.7,1.3,3.9,2,6.1,1.9c1.6,0,3.2-0.3,4.7-0.8c1.4-0.5,2.7-1.3,3.7-2.3c1.1-1.1,2-2.5,2.6-3.9c0.5-1.8,0.8-3.7,0.7-5.6L143.5,47.9z
		"/>
	<path id="ll" class="st1" d="M104.3,67.6V11h7v56.6H104.3z"/>
	<path id="i" class="st1" d="M88.8,67.6V27.2h7v40.4C95.8,67.6,88.8,67.6,88.8,67.6z M88.8,18.9V11h7v7.9H88.8z"/>
	<path id="e" class="st1" d="M65,63.3c2.6,0.1,5.1-0.7,7.2-2.1c1.9-1.4,3.1-3.4,3.6-5.6H83c-0.7,3.7-2.8,7.1-5.8,9.4
		c-3.1,2.5-7.2,3.8-12.1,3.8c-3.6,0.1-7.2-0.8-10.2-2.7c-2.9-1.8-5.2-4.5-6.6-7.6c-1.6-3.6-2.4-7.6-2.3-11.5
		c-0.1-3.7,0.7-7.4,2.3-10.7c1.4-3,3.7-5.6,6.6-7.4c3-1.8,6.5-2.7,10-2.7c4.1-0.1,8.2,1.2,11.5,3.7c3.2,2.6,5.4,6.3,6.3,10.3
		c0.6,2.9,0.9,5.8,0.8,8.7H52.9c0.2,4.8,1.3,8.4,3.6,10.8C58.6,62.1,61.7,63.5,65,63.3L65,63.3z M64.7,31.5c-3-0.1-5.9,1-8.1,3.1
		c-2.1,2.1-3.3,5.1-3.7,8.9h23.4c-0.4-3.9-1.6-6.8-3.7-8.9C70.5,32.6,67.7,31.4,64.7,31.5L64.7,31.5z"/>
	<path id="v" class="st1" d="M21.6,67.6L2,11h7.7l8.7,25.2c1.9,5.4,4.5,13.4,7.9,24.3h0.2c2.9-9.2,5.5-17.3,8-24.3L43.1,11h7.8
		L31.2,67.6H21.6z"/>
</g>
</svg>
